<?xml version="1.0" encoding="utf-8"?>
<!-- Generator: Adobe Illustrator 19.1.0, SVG Export Plug-In . SVG Version: 6.00 Build 0)  -->
<!DOCTYPE svg PUBLIC "-//W3C//DTD SVG 1.1//EN" "http://www.w3.org/Graphics/SVG/1.1/DTD/svg11.dtd">
<svg version="1.1" id="Layer_1" xmlns="http://www.w3.org/2000/svg" xmlns:xlink="http://www.w3.org/1999/xlink" x="0px" y="0px"
	 viewBox="0 0 16 16" style="enable-background:new 0 0 16 16;" xml:space="preserve">
<style type="text/css">
	.st0{fill:#010101;}
</style>
<g>
	<path class="st0" d="M2.8,4.1H1.5c-0.7,0-1.3-0.6-1.3-1.3V1.5c0-0.7,0.6-1.3,1.3-1.3h1.3c0.7,0,1.3,0.6,1.3,1.3v1.3
		C4.1,3.5,3.5,4.1,2.8,4.1z M2.8,1.5H1.5v1.3h1.3L2.8,1.5z M14.5,4.1h-1.3c-0.7,0-1.3-0.6-1.3-1.3V1.5c0-0.7,0.6-1.3,1.3-1.3h1.3
		c0.7,0,1.3,0.6,1.3,1.3v1.3C15.8,3.5,15.2,4.1,14.5,4.1z M14.5,1.5h-1.3v1.3h1.3L14.5,1.5z M2.8,15.8H1.5c-0.7,0-1.3-0.6-1.3-1.3
		v-1.3c0-0.7,0.6-1.3,1.3-1.3h1.3c0.7,0,1.3,0.6,1.3,1.3v1.3C4.1,15.2,3.5,15.8,2.8,15.8z M1.5,13.2v1.3h1.3l0-1.3H1.5z M14.5,15.8
		h-1.3c-0.7,0-1.3-0.6-1.3-1.3v-1.3c0-0.7,0.6-1.3,1.3-1.3h1.3c0.7,0,1.3,0.6,1.3,1.3v1.3C15.8,15.2,15.2,15.8,14.5,15.8z
		 M13.2,13.2v1.3h1.3l0-1.3H13.2z M2.1,12.5c-0.4,0-0.7-0.3-0.7-0.7V4.2c0-0.4,0.3-0.7,0.7-0.7s0.7,0.3,0.7,0.7v7.7
		C2.8,12.2,2.5,12.5,2.1,12.5z M13.9,12.5c-0.4,0-0.7-0.3-0.7-0.7V4.2c0-0.4,0.3-0.7,0.7-0.7s0.7,0.3,0.7,0.7v7.7
		C14.5,12.2,14.2,12.5,13.9,12.5z M11.8,14.5H4.2c-0.4,0-0.7-0.3-0.7-0.7s0.3-0.7,0.7-0.7h7.7c0.4,0,0.7,0.3,0.7,0.7
		S12.2,14.5,11.8,14.5z M11.8,2.8H4.2c-0.4,0-0.7-0.3-0.7-0.7s0.3-0.7,0.7-0.7h7.7c0.4,0,0.7,0.3,0.7,0.7S12.2,2.8,11.8,2.8z"/>
</g>
</svg>
