<?xml version="1.0" encoding="utf-8"?>
<!-- Generator: Adobe Illustrator 19.1.0, SVG Export Plug-In . SVG Version: 6.00 Build 0)  -->
<!DOCTYPE svg PUBLIC "-//W3C//DTD SVG 1.1//EN" "http://www.w3.org/Graphics/SVG/1.1/DTD/svg11.dtd">
<svg version="1.1" id="Layer_1" xmlns="http://www.w3.org/2000/svg" xmlns:xlink="http://www.w3.org/1999/xlink" x="0px" y="0px"
	 viewBox="0 0 16 16" style="enable-background:new 0 0 16 16;" xml:space="preserve">
<style type="text/css">
	.st0{fill:#010101;}
</style>
<path class="st0" d="M14.5,3.5c0.6,0,1.1-0.3,1.1-0.8V1.2c0-0.4-0.5-0.8-1.1-0.8c-0.6,0-1.1,0.3-1.1,0.8v1.5
	C13.4,3.1,13.9,3.5,14.5,3.5z"/>
<path class="st0" d="M14.5,7.5c0.6,0,1.1-0.3,1.1-0.8V5.2c0-0.4-0.5-0.8-1.1-0.8c-0.6,0-1.1,0.3-1.1,0.8v1.5
	C13.4,7.2,13.9,7.5,14.5,7.5z"/>
<path class="st0" d="M14.5,11.5c0.6,0,1.1-0.3,1.1-0.8V9.3c0-0.4-0.5-0.8-1.1-0.8c-0.6,0-1.1,0.3-1.1,0.8v1.5
	C13.4,11.2,13.9,11.5,14.5,11.5z"/>
<path class="st0" d="M14.5,15.6c0.6,0,1.1-0.3,1.1-0.8v-1.5c0-0.4-0.5-0.8-1.1-0.8c-0.6,0-1.1,0.3-1.1,0.8v1.5
	C13.4,15.2,13.9,15.6,14.5,15.6z"/>
<path class="st0" d="M8.7,7.1H0.3v2.4h8.3l-3,3.2l1.6,1.7l4.9-5.3c0.2-0.2,0.3-0.5,0.3-0.9c0-0.3-0.1-0.6-0.3-0.9L7.2,2.2L5.7,3.9
	L8.7,7.1z"/>
</svg>
