<?xml version="1.0" encoding="utf-8"?>
<!-- Generator: Adobe Illustrator 19.1.0, SVG Export Plug-In . SVG Version: 6.00 Build 0)  -->
<!DOCTYPE svg PUBLIC "-//W3C//DTD SVG 1.1//EN" "http://www.w3.org/Graphics/SVG/1.1/DTD/svg11.dtd">
<svg version="1.1" id="Layer_1" xmlns="http://www.w3.org/2000/svg" xmlns:xlink="http://www.w3.org/1999/xlink" x="0px" y="0px"
	 viewBox="0 0 16 16" style="enable-background:new 0 0 16 16;" xml:space="preserve">
<style type="text/css">
	.st0{fill:#010101;}
</style>
<g>
	<path class="st0" d="M15.6,14.6c0,0,0,0,0-0.1c0-0.1,0-0.2-0.1-0.4c-0.1-0.3-0.3-0.9-0.8-1.4c-0.3-0.3-0.6-0.5-1-0.7
		c-0.4-0.2-0.8-0.2-1.3-0.3c-0.9-0.1-1.8,0.1-2.8,0.3c-0.1,0-0.1,0-0.2,0.1c0.1-0.1,0.3-0.3,0.4-0.4c0.4-0.4,0.9-0.8,1.3-1.3
		c0.2-0.2,0.4-0.5,0.7-0.9c0.1-0.1,0.1-0.2,0.2-0.4l0-0.1l0-0.1c0,0,0-0.1,0-0.2c0-0.1,0-0.3,0-0.4l0-0.1l0,0c0,0.1-0.2-0.4-0.1-0.3
		c-0.1-0.1-0.2-0.2-0.2-0.3c-0.1-0.1-0.2-0.1-0.2-0.1c-0.1,0-0.1,0-0.2-0.1c0,0-0.1,0-0.2,0l-0.1,0c-0.1,0-0.1,0-0.2,0
		c-0.2,0-0.3,0-0.4,0.1c-0.4,0.1-0.7,0.2-1,0.3C9.1,8,8.8,8.1,8.5,8.2C7.9,8.5,7.3,8.7,6.8,8.9C5.9,9.3,5,9.7,4.1,10
		C4.6,9.6,5,9.2,5.4,8.8C6.2,8.1,7,7.5,7.8,6.9c1.5-1.1,2.7-2,3.6-2.7c0.9-0.6,1.4-1,1.4-1l0,0c0,0,0,0,0,0c0.6-0.5,0.8-1.4,0.3-2.1
		c-0.5-0.6-1.4-0.8-2.1-0.3c0,0-0.5,0.4-1.4,1.1C8.7,2.6,7.5,3.6,6,4.8c-0.7,0.6-1.5,1.3-2.3,2C3.3,7.2,2.9,7.6,2.5,8
		C2.1,8.4,1.6,8.9,1.2,9.4C1,9.7,0.8,10,0.6,10.4c-0.1,0.1-0.1,0.3-0.1,0.5c0,0.1,0,0.2,0,0.4c0,0.1,0,0.3,0.1,0.5
		c0,0,0.1,0.2,0.1,0.1l0,0l0,0l0,0.1c0,0.1,0.1,0.1,0.1,0.2c0.1,0.2,0.2,0.3,0.4,0.4c0.2,0.2,0.5,0.3,0.7,0.3c0.4,0.1,0.6,0.1,0.8,0
		c0.2,0,0.4-0.1,0.6-0.1c0.4-0.1,0.7-0.2,1-0.3c1.2-0.4,2.4-1,3.5-1.5c0.1-0.1,0.3-0.1,0.4-0.2c-0.3,0.3-0.5,0.6-0.8,0.8
		c-0.2,0.2-0.4,0.4-0.6,0.7c-0.1,0.1-0.2,0.2-0.3,0.4c-0.1,0.1-0.1,0.2-0.2,0.3c0,0,0,0,0,0.1c0,0,0,0.1,0,0.1c0,0.1-0.1,0.3,0,0.5
		c0.1,0.4,0,0.1,0.1,0.2l0,0c0,0,0,0.1,0.1,0.2c0,0.1,0.1,0.1,0.2,0.2c0.1,0.1,0.1,0.1,0.1,0.1c0,0,0.1,0,0.1,0.1c0,0,0.1,0,0.1,0
		c0,0,0,0,0.1,0c0,0,0.1,0,0.1,0c0,0,0.1,0,0.1,0c0.1,0,0.1,0,0.1,0c0.2,0,0.2,0,0.3,0c0.2,0,0.3-0.1,0.4-0.1
		c0.3-0.1,0.5-0.2,0.7-0.2c0.5-0.2,0.9-0.3,1.3-0.4c0.9-0.2,1.6-0.4,2.3-0.4c0.6,0,1.1,0.2,1.3,0.4c0.3,0.2,0.4,0.5,0.4,0.7
		c0.1,0.2,0.1,0.3,0.1,0.3c0,0,0,0,0,0c0.1,0.4,0.4,0.7,0.8,0.6C15.4,15.4,15.7,15,15.6,14.6z M7.1,12.7L7.1,12.7
		C7.1,12.7,7.1,12.7,7.1,12.7z"/>
</g>
</svg>
