<?xml version="1.0" encoding="utf-8"?>
<!-- Generator: Adobe Illustrator 19.1.0, SVG Export Plug-In . SVG Version: 6.00 Build 0)  -->
<!DOCTYPE svg PUBLIC "-//W3C//DTD SVG 1.1//EN" "http://www.w3.org/Graphics/SVG/1.1/DTD/svg11.dtd">
<svg version="1.1" id="Layer_1" xmlns="http://www.w3.org/2000/svg" xmlns:xlink="http://www.w3.org/1999/xlink" x="0px" y="0px"
	 viewBox="0 0 16 16" style="enable-background:new 0 0 16 16;" xml:space="preserve">
<style type="text/css">
	.st0{fill:#010101;}
</style>
<g>
	<g>
		<path class="st0" d="M4.5,10.8l0.9,0.9c0.2,0.2,0.5,0.2,0.7,0l7.4-7.4c0.2-0.2,0.2-0.5,0-0.7l-0.9-0.9c-0.2-0.2-0.5-0.2-0.7,0
			l-7.4,7.4C4.3,10.3,4.3,10.6,4.5,10.8z"/>
	</g>
	<g>
		<path class="st0" d="M15.2,6.6c0.2-0.2,0.2-0.4,0.1-0.6l-0.6-1.1c-0.2-0.3-0.5-0.3-0.7-0.1l-7.4,7.4c-0.2,0.2-0.2,0.4-0.1,0.6
			l0.3,0.6c-0.1,0.1-0.2,0.1-0.3,0.2L4.1,14c-0.3-0.9-1-1.6-1.9-1.9l0.4-2.3c0-0.1,0.1-0.2,0.2-0.3l0.6,0.3c0.2,0.1,0.4,0.1,0.6-0.1
			l7.4-7.4c0.2-0.2,0.2-0.6-0.1-0.7l-1.1-0.6C10,0.8,9.8,0.8,9.6,1L2,8.6c-0.3,0.3-0.4,0.6-0.5,1l-0.9,5.3c-0.1,0.4,0.2,0.7,0.6,0.7
			c0,0,0.1,0,0.1,0l5.3-0.9c0.4-0.1,0.7-0.2,1-0.5L15.2,6.6z"/>
	</g>
</g>
</svg>
