<?xml version="1.0" encoding="utf-8"?>
<!-- Generator: Adobe Illustrator 19.1.0, SVG Export Plug-In . SVG Version: 6.00 Build 0)  -->
<!DOCTYPE svg PUBLIC "-//W3C//DTD SVG 1.1//EN" "http://www.w3.org/Graphics/SVG/1.1/DTD/svg11.dtd">
<svg version="1.1" id="Layer_1" xmlns="http://www.w3.org/2000/svg" xmlns:xlink="http://www.w3.org/1999/xlink" x="0px" y="0px"
	 viewBox="0 0 16 16" style="enable-background:new 0 0 16 16;" xml:space="preserve">
<style type="text/css">
	.st0{fill:#010101;}
</style>
<g>
	<path class="st0" d="M15.2,4.4l-3.6-3.6c-0.7-0.7-1.8-0.7-2.5,0L6.3,3.5L6.2,3.4L0.3,9.2l0.2,0.2c-0.4,0.7-0.4,1.6,0.3,2.2l3.6,3.6
		c0.6,0.6,1.5,0.7,2.2,0.3l0.2,0.2l5.8-5.8l-0.1-0.1l2.8-2.8C15.9,6.2,15.9,5.1,15.2,4.4z M5,14.6L1.4,11c-0.2-0.2-0.3-0.5-0.2-0.8
		l4.6,4.6C5.6,14.8,5.3,14.8,5,14.6z M14.6,6.2L11.8,9L7,4.2l2.8-2.8c0.3-0.3,0.9-0.3,1.2,0L14.6,5C14.9,5.4,14.9,5.9,14.6,6.2z"/>
</g>
</svg>
