<?xml version="1.0" encoding="utf-8"?>
<!-- Generator: Adobe Illustrator 19.1.0, SVG Export Plug-In . SVG Version: 6.00 Build 0)  -->
<!DOCTYPE svg PUBLIC "-//W3C//DTD SVG 1.1//EN" "http://www.w3.org/Graphics/SVG/1.1/DTD/svg11.dtd">
<svg version="1.1" id="Layer_1" xmlns="http://www.w3.org/2000/svg" xmlns:xlink="http://www.w3.org/1999/xlink" x="0px" y="0px"
	 viewBox="0 0 20 16" style="enable-background:new 0 0 20 16;" xml:space="preserve">
<style type="text/css">
	.st0{fill:#010101;}
</style>
<path class="st0" d="M19.8,8.2C19.8,8.2,19.8,8.2,19.8,8.2C19.8,8.2,19.8,8.2,19.8,8.2C19.8,8.2,19.8,8.2,19.8,8.2
	C19.8,8.2,19.8,8.2,19.8,8.2C19.8,8.2,19.8,8.2,19.8,8.2c0-0.2-0.1-0.4-0.2-0.5c-0.6-0.7-1.4-1.4-2.1-2c-1.6-1.3-3.5-2.4-5.6-2.8
	c-1.2-0.3-2.4-0.3-3.6,0C7.2,3.1,6.2,3.5,5.2,4C3.7,4.8,2.3,5.8,1.1,7.1C0.8,7.3,0.6,7.5,0.4,7.7c-0.3,0.3-0.3,0.7,0,1
	c0.6,0.7,1.4,1.4,2.1,2c1.6,1.3,3.5,2.4,5.6,2.8c1.2,0.3,2.4,0.3,3.6,0c1.1-0.2,2.1-0.6,3.1-1.1c1.5-0.8,2.9-1.9,4.2-3.1
	c0.2-0.2,0.5-0.5,0.7-0.7c0.1-0.1,0.2-0.3,0.2-0.4c0,0,0,0,0,0c0,0,0,0,0,0c0,0,0,0,0,0C19.8,8.3,19.8,8.3,19.8,8.2
	C19.8,8.3,19.8,8.3,19.8,8.2C19.8,8.3,19.8,8.3,19.8,8.2C19.8,8.3,19.8,8.2,19.8,8.2z M10,12c-2.1,0-3.8-1.7-3.8-3.8
	c0-2.1,1.7-3.8,3.8-3.8s3.8,1.7,3.8,3.8S12.1,12,10,12z"/>
<circle class="st0" cx="10" cy="8.3" r="1.2"/>
</svg>
