<?xml version="1.0" encoding="utf-8"?>
<!-- Generator: Adobe Illustrator 19.1.0, SVG Export Plug-In . SVG Version: 6.00 Build 0)  -->
<!DOCTYPE svg PUBLIC "-//W3C//DTD SVG 1.1//EN" "http://www.w3.org/Graphics/SVG/1.1/DTD/svg11.dtd">
<svg version="1.1" id="Layer_1" xmlns="http://www.w3.org/2000/svg" xmlns:xlink="http://www.w3.org/1999/xlink" x="0px" y="0px"
	 viewBox="0 0 100 10" style="enable-background:new 0 0 100 10;" xml:space="preserve">
<style type="text/css">
	.st0{fill:#020202;}
</style>
<path class="st0" d="M13.9,3.7H7.2C3.4,3.7,0.6,4.3,0.6,5s2.9,1.3,6.7,1.3h85.6c3.3,0,6.2-0.6,6.2-1.3s-2.9-1.3-6.2-1.3h-6.7"/>
<path class="st0" d="M2.5,2.4V0.5C2.5,0.2,2,0,1.4,0S0.3,0.2,0.3,0.5v8.9c0,0.4,0.5,0.6,1.1,0.6s1.1-0.3,1.1-0.6V8.8"/>
<path class="st0" d="M99.5,2.4V0.5C99.5,0.2,99,0,98.4,0s-1.1,0.3-1.1,0.6v8.9c0,0.4,0.5,0.6,1.1,0.6s1.1-0.3,1.1-0.6V8.9"/>
</svg>
