<?xml version="1.0" encoding="utf-8"?>
<!-- Generator: Adobe Illustrator 19.1.0, SVG Export Plug-In . SVG Version: 6.00 Build 0)  -->
<!DOCTYPE svg PUBLIC "-//W3C//DTD SVG 1.1//EN" "http://www.w3.org/Graphics/SVG/1.1/DTD/svg11.dtd">
<svg version="1.1" id="Layer_1" xmlns="http://www.w3.org/2000/svg" xmlns:xlink="http://www.w3.org/1999/xlink" x="0px" y="0px"
	 viewBox="0 0 24 16" style="enable-background:new 0 0 24 16;" xml:space="preserve">
<style type="text/css">
	.st0{fill:#010101;}
</style>
<path class="st0" d="M4.2,6.7H2.8C2,6.7,1.4,7.3,1.4,8S2,9.3,2.8,9.3h18c0.7,0,1.3-0.6,1.3-1.3s-0.6-1.3-1.3-1.3h-1.4"/>
<path class="st0" d="M2.6,4.3V1.6c0-0.5-0.5-0.8-1.1-0.8c-0.6,0-1.1,0.4-1.1,0.8v12.7c0,0.5,0.5,0.8,1.1,0.8c0.6,0,1.1-0.4,1.1-0.8
	v-0.8"/>
<path class="st0" d="M23.5,4.3V1.6c0-0.5-0.5-0.8-1.1-0.8c-0.6,0-1.1,0.4-1.1,0.8v12.7c0,0.5,0.5,0.8,1.1,0.8c0.6,0,1.1-0.4,1.1-0.8
	v-0.8"/>
</svg>
