<?xml version="1.0" encoding="utf-8"?>
<!-- Generator: Adobe Illustrator 19.1.0, SVG Export Plug-In . SVG Version: 6.00 Build 0)  -->
<!DOCTYPE svg PUBLIC "-//W3C//DTD SVG 1.1//EN" "http://www.w3.org/Graphics/SVG/1.1/DTD/svg11.dtd">
<svg version="1.1" id="Layer_1" xmlns="http://www.w3.org/2000/svg" xmlns:xlink="http://www.w3.org/1999/xlink" x="0px" y="0px"
	 viewBox="0 0 16 16" style="enable-background:new 0 0 16 16;" xml:space="preserve">
<style type="text/css">
	.st0{fill:#010101;}
</style>
<g>
	<path class="st0" d="M15.5,12.8l-1.9-6.1c-0.2-0.8-0.8-1.4-1.6-1.6L13.6,3c0.2-0.3,0.2-0.6,0.2-0.9c-0.1-0.3-0.3-0.6-0.6-0.7
		C7.2-1.5,2.9,1.3,2.7,1.4C2.5,1.6,2.3,1.8,2.3,2.1s0,0.6,0.2,0.8l1.5,2.2C3.2,5.4,2.6,6,2.4,6.7l-1.9,6.1c-0.2,0.7-0.1,1.5,0.4,2.1
		s1.2,1,1.9,1h10.5c0.8,0,1.5-0.3,1.9-1C15.6,14.3,15.8,13.5,15.5,12.8z M11,2.8l-1.4,2L8.9,4.8c0,0,0,0-0.1,0H7.2c0,0,0,0-0.1,0
		L6.4,4.9L5,2.8C6.2,2.3,8.3,1.9,11,2.8z"/>
</g>
</svg>
