<?xml version="1.0" encoding="utf-8"?>
<!-- Generator: Adobe Illustrator 19.1.0, SVG Export Plug-In . SVG Version: 6.00 Build 0)  -->
<!DOCTYPE svg PUBLIC "-//W3C//DTD SVG 1.1//EN" "http://www.w3.org/Graphics/SVG/1.1/DTD/svg11.dtd">
<svg version="1.1" id="Layer_1" xmlns="http://www.w3.org/2000/svg" xmlns:xlink="http://www.w3.org/1999/xlink" x="0px" y="0px"
	 viewBox="0 0 16 16" style="enable-background:new 0 0 16 16;" xml:space="preserve">
<style type="text/css">
	.st0{fill:#010101;}
</style>
<path class="st0" d="M13.9,4.2L13.9,4.2L13.9,4.2L13.9,4.2l-4-4v0H1.8v15.5h12.2L13.9,4.2L13.9,4.2z M12.3,4.2H9.9V1.9L12.3,4.2z
	 M12.8,14.6H2.9V1.4h6v3.9h4L12.8,14.6L12.8,14.6z"/>
<polygon class="st0" points="10.4,8.6 8.4,8.6 8.4,6.6 7.3,6.6 7.3,8.6 5.3,8.6 5.3,9.7 7.3,9.7 7.3,11.7 8.4,11.7 8.4,9.7 
	10.4,9.7 "/>
</svg>
