<?xml version="1.0" encoding="utf-8"?>
<!-- Generator: Adobe Illustrator 19.1.0, SVG Export Plug-In . SVG Version: 6.00 Build 0)  -->
<!DOCTYPE svg PUBLIC "-//W3C//DTD SVG 1.1//EN" "http://www.w3.org/Graphics/SVG/1.1/DTD/svg11.dtd">
<svg version="1.1" id="Layer_1" xmlns="http://www.w3.org/2000/svg" xmlns:xlink="http://www.w3.org/1999/xlink" x="0px" y="0px"
	 viewBox="0 0 16 16" style="enable-background:new 0 0 16 16;" xml:space="preserve">
<style type="text/css">
	.st0{fill:#010101;}
</style>
<path class="st0" d="M8,0.2C3.7,0.2,0.2,3.7,0.2,8s3.5,7.8,7.8,7.8s7.8-3.5,7.8-7.8S12.3,0.2,8,0.2z M8,2.1c1.3,0,2.5,0.4,3.4,1.1
	l-8.2,8.2c-0.7-1-1.1-2.1-1.1-3.4C2.1,4.8,4.8,2.1,8,2.1z M12.8,4.6c0.7,1,1.1,2.1,1.1,3.4c0,3.2-2.6,5.9-5.9,5.9
	c-1.3,0-2.5-0.4-3.4-1.1L12.8,4.6z"/>
</svg>
