<?xml version="1.0" standalone="no"?>
<!DOCTYPE svg PUBLIC "-//W3C//DTD SVG 20010904//EN"
 "http://www.w3.org/TR/2001/REC-SVG-20010904/DTD/svg10.dtd">
<svg version="1.0" xmlns="http://www.w3.org/2000/svg"
 width="973.000000pt" height="684.000000pt" viewBox="0 0 973.000000 684.000000"
 preserveAspectRatio="xMidYMid meet">
<metadata>
Created by potrace 1.15, written by Peter Selinger 2001-2017
</metadata>
<g transform="translate(0.000000,684.000000) scale(0.100000,-0.100000)"
fill="#000000" stroke="none">
<path d="M4513 6293 c21 -5 23 -23 2 -23 -8 0 -15 -6 -15 -14 0 -8 -10 -17
-22 -19 l-23 -4 23 -2 c12 0 22 -5 22 -10 0 -5 -10 -12 -22 -14 l-23 -4 23 -2
c12 0 22 -5 22 -10 0 -5 -10 -12 -22 -14 l-23 -4 23 -2 c12 0 22 -8 22 -16 0
-8 7 -15 15 -15 21 0 19 -18 -2 -23 -17 -4 -17 -5 0 -6 9 0 17 -8 17 -16 0 -8
7 -15 15 -15 8 0 15 -9 15 -20 0 -11 7 -20 15 -20 10 0 15 -10 15 -30 0 -20 5
-30 15 -30 8 0 15 -7 15 -15 0 -8 7 -15 15 -15 21 0 19 -18 -2 -23 -17 -4 -17
-5 0 -6 9 0 17 -8 17 -16 0 -8 7 -15 15 -15 10 0 15 -10 15 -30 0 -20 5 -30
15 -30 8 0 15 -7 15 -15 0 -8 7 -15 15 -15 10 0 15 -10 15 -30 0 -20 5 -30 15
-30 8 0 15 -7 15 -15 0 -8 7 -15 15 -15 8 0 15 -7 15 -15 0 -8 7 -15 15 -15 8
0 15 -7 15 -15 0 -8 7 -15 15 -15 8 0 15 -7 15 -15 0 -8 7 -15 15 -15 10 0 15
-10 15 -30 0 -20 5 -30 15 -30 8 0 15 -7 15 -15 0 -8 7 -15 15 -15 8 0 15 -7
15 -15 0 -8 7 -15 15 -15 8 0 15 -7 15 -15 0 -8 7 -15 15 -15 21 0 19 -18 -2
-23 -17 -4 -17 -5 0 -6 9 0 17 -8 17 -16 0 -8 7 -15 15 -15 8 0 15 -7 15 -15
0 -8 7 -15 15 -15 21 0 19 -18 -2 -23 -17 -4 -17 -5 0 -6 9 0 17 -8 17 -16 0
-8 7 -15 15 -15 10 0 15 -11 15 -35 0 -24 5 -35 15 -35 21 0 19 -18 -2 -23
-17 -4 -17 -5 0 -6 23 -1 25 -81 2 -81 -8 0 -15 -7 -15 -15 0 -8 -7 -15 -15
-15 -8 0 -15 -7 -15 -15 0 -10 -10 -15 -30 -15 -20 0 -30 -5 -30 -15 0 -8 -7
-15 -15 -15 -8 0 -15 -7 -15 -15 0 -8 -7 -15 -15 -15 -8 0 -15 -7 -15 -15 0
-8 -7 -15 -15 -15 -10 0 -15 -10 -15 -30 0 -20 -5 -30 -15 -30 -10 0 -15 -10
-15 -30 0 -20 -5 -30 -15 -30 -8 0 -15 -6 -15 -14 0 -8 -8 -17 -17 -19 -17 -4
-17 -5 0 -6 21 -1 23 -21 2 -21 -8 0 -15 -7 -15 -15 0 -10 -10 -15 -30 -15
-20 0 -30 -5 -30 -15 0 -8 -7 -15 -15 -15 -8 0 -15 -7 -15 -15 0 -8 -7 -15
-15 -15 -8 0 -15 -7 -15 -15 0 -8 -7 -15 -15 -15 -8 0 -15 -7 -15 -15 0 -8 -7
-15 -15 -15 -8 0 -15 -7 -15 -15 0 -8 -7 -15 -15 -15 -10 0 -15 -11 -15 -35 0
-24 -5 -35 -15 -35 -10 0 -15 -10 -15 -30 0 -20 -5 -30 -15 -30 -10 0 -15 -10
-15 -29 0 -20 -6 -31 -17 -34 -17 -4 -17 -5 0 -6 21 -1 23 -21 2 -21 -12 0
-15 -13 -15 -59 0 -48 -3 -60 -17 -64 -17 -4 -17 -5 0 -6 9 0 17 -5 17 -10 0
-5 -8 -12 -17 -14 -17 -4 -17 -5 0 -6 9 0 17 -5 17 -10 0 -5 -8 -12 -17 -14
-17 -4 -17 -5 0 -6 15 -1 17 -12 17 -91 0 -73 3 -90 15 -90 10 0 15 -10 15
-30 0 -20 5 -30 15 -30 21 0 19 -18 -2 -23 -17 -4 -17 -5 0 -6 12 -1 17 -10
17 -31 0 -20 5 -30 15 -30 8 0 15 -7 15 -15 0 -8 7 -15 15 -15 10 0 15 -11 15
-35 0 -24 5 -35 15 -35 10 0 15 -10 15 -30 0 -20 5 -30 15 -30 8 0 15 -7 15
-15 0 -8 7 -15 15 -15 8 0 15 -7 15 -15 0 -8 7 -15 15 -15 8 0 15 -7 15 -15 0
-8 7 -15 15 -15 8 0 15 -7 15 -15 0 -8 7 -15 15 -15 8 0 15 -7 15 -15 0 -8 7
-15 15 -15 8 0 15 -7 15 -15 0 -8 7 -15 15 -15 8 0 15 -7 15 -15 0 -8 7 -15
15 -15 13 0 15 -30 15 -210 0 -180 2 -210 15 -210 22 0 20 -57 -2 -63 -17 -4
-17 -5 0 -6 9 0 17 -5 17 -10 0 -5 -8 -12 -17 -14 -17 -4 -17 -5 0 -6 9 0 17
-5 17 -10 0 -5 -8 -12 -17 -14 -17 -4 -17 -5 0 -6 15 -1 17 -15 17 -151 0
-127 2 -150 15 -150 21 0 19 -18 -2 -23 -17 -4 -17 -5 0 -6 9 0 17 -5 17 -10
0 -5 -8 -12 -17 -14 -17 -4 -17 -5 0 -6 9 0 17 -5 17 -10 0 -5 -8 -12 -17 -14
-17 -4 -17 -5 0 -6 9 0 17 -5 17 -10 0 -5 -8 -12 -17 -14 -17 -4 -17 -5 0 -6
9 0 17 -5 17 -10 0 -5 -8 -12 -17 -14 -17 -4 -17 -5 0 -6 15 -1 17 -13 17
-106 0 -87 -3 -105 -15 -105 -12 0 -15 -15 -15 -75 0 -60 -3 -75 -15 -75 -10
0 -15 -10 -15 -30 0 -20 -5 -30 -15 -30 -10 0 -15 -10 -15 -30 0 -20 -5 -30
-15 -30 -11 0 -15 -12 -15 -44 0 -34 -4 -46 -17 -49 -17 -4 -17 -5 0 -6 21 -1
23 -21 2 -21 -12 0 -15 -14 -15 -65 0 -51 3 -65 15 -65 8 0 15 -7 15 -15 0 -8
6 -15 14 -15 8 0 17 -8 19 -17 4 -17 5 -17 6 0 1 22 18 22 24 0 4 -17 5 -17 6
0 1 13 10 17 46 17 33 0 45 4 45 15 0 8 7 15 15 15 8 0 15 7 15 15 0 8 7 15
15 15 11 0 15 12 15 44 0 34 4 46 18 49 16 4 16 5 0 6 -22 1 -24 21 -3 21 12
0 15 13 15 59 0 48 3 60 18 64 16 4 16 5 0 6 -22 1 -24 21 -3 21 10 0 15 10
15 29 0 20 6 31 18 34 16 4 16 5 0 6 -22 1 -24 21 -3 21 10 0 15 10 15 30 0
20 5 30 15 30 8 0 15 7 15 15 0 8 7 15 15 15 8 0 15 7 15 15 0 8 7 15 15 15 8
0 15 9 15 20 0 13 7 20 20 20 11 0 20 7 20 15 0 8 7 15 15 15 8 0 15 7 15 15
0 21 18 19 23 -2 4 -17 5 -17 6 0 1 21 21 23 21 2 0 -8 7 -15 15 -15 10 0 15
-11 15 -35 0 -24 5 -35 15 -35 10 0 15 -10 15 -30 0 -20 5 -30 15 -30 21 0 19
-18 -2 -23 -17 -4 -17 -5 0 -6 16 -1 17 -18 17 -211 0 -180 2 -210 15 -210 8
0 15 -7 15 -15 0 -10 10 -15 29 -15 20 0 31 -6 34 -18 4 -16 5 -16 6 1 1 22
18 22 24 -1 4 -16 5 -16 6 1 0 9 5 17 10 17 5 0 12 -8 14 -17 4 -17 5 -17 6 0
0 9 5 17 10 17 5 0 12 -8 14 -17 4 -17 5 -17 6 0 0 9 5 17 10 17 5 0 12 -8 14
-17 4 -17 5 -17 6 0 1 21 21 23 21 2 0 -10 11 -15 35 -15 24 0 35 5 35 15 0
21 18 19 23 -2 4 -16 5 -16 6 -1 0 9 9 19 19 21 16 4 16 5 0 6 -22 1 -24 21
-3 21 12 0 15 14 15 65 0 51 -3 65 -15 65 -21 0 -19 18 3 23 16 4 16 5 0 6
-14 1 -18 10 -18 46 0 33 -4 45 -15 45 -21 0 -19 18 3 23 16 4 16 5 0 6 -15 1
-18 11 -18 70 0 58 3 70 18 74 16 4 16 5 0 6 -22 1 -24 21 -3 21 10 0 15 10
15 29 0 20 6 31 18 34 16 4 16 5 0 6 -22 1 -24 31 -3 31 13 0 15 29 15 200 0
171 -2 200 -15 200 -11 0 -15 12 -15 45 0 33 -4 45 -15 45 -8 0 -15 5 -15 10
0 6 7 10 15 10 10 0 15 10 15 29 0 20 6 31 18 34 16 4 16 5 0 6 -22 1 -24 21
-3 21 13 0 15 26 15 175 0 149 -2 175 -15 175 -21 0 -19 18 3 23 16 4 16 5 0
6 -16 1 -18 12 -18 76 0 60 -3 75 -15 75 -21 0 -19 18 3 23 16 4 16 5 0 6 -14
1 -18 10 -18 46 0 33 -4 45 -15 45 -21 0 -19 18 3 23 16 4 16 5 0 6 -14 1 -18
10 -18 46 0 33 -4 45 -15 45 -11 0 -15 12 -15 45 0 33 -4 45 -15 45 -10 0 -15
11 -15 35 0 24 -5 35 -15 35 -10 0 -15 10 -15 30 0 20 -5 30 -15 30 -10 0 -15
10 -15 30 0 20 -5 30 -15 30 -8 0 -15 7 -15 15 0 8 -7 15 -15 15 -10 0 -15 10
-15 30 0 20 -5 30 -15 30 -8 0 -15 7 -15 15 0 8 -7 15 -15 15 -8 0 -15 7 -15
15 0 8 -7 15 -15 15 -8 0 -15 7 -15 15 0 8 -7 15 -15 15 -8 0 -15 7 -15 15 0
8 -7 15 -15 15 -8 0 -15 7 -15 15 0 10 -10 15 -30 15 -20 0 -30 5 -30 15 0 8
-7 15 -15 15 -11 0 -15 11 -15 40 0 29 4 40 15 40 8 0 15 7 15 15 0 8 7 15 15
15 10 0 15 10 15 30 0 20 5 30 15 30 8 0 15 6 15 14 0 8 8 17 18 19 16 4 16 5
0 6 -22 1 -24 21 -3 21 10 0 15 10 15 29 0 20 6 31 18 34 16 4 16 5 0 6 -22 1
-24 31 -3 31 13 0 15 57 15 455 0 398 2 455 15 455 8 0 15 7 15 15 0 8 7 15
15 15 8 0 15 7 15 15 0 8 7 15 15 15 8 0 15 7 15 15 0 8 7 15 15 15 8 0 15 7
15 15 0 8 7 15 15 15 8 0 15 7 15 15 0 8 7 15 15 15 8 0 15 6 15 14 0 8 8 17
18 19 16 4 16 5 0 6 -22 1 -24 21 -3 21 8 0 15 7 15 15 0 8 7 15 15 15 8 0 15
7 15 15 0 8 7 15 15 15 8 0 15 7 15 15 0 8 7 15 15 15 8 0 15 7 15 15 0 8 7
15 15 15 8 0 15 7 15 15 0 8 7 15 15 15 8 0 15 7 15 15 0 8 7 15 15 15 8 0 15
7 15 15 0 8 7 15 15 15 8 0 15 7 15 15 0 8 7 15 15 15 8 0 15 7 15 15 0 8 7
15 15 15 12 0 15 16 15 85 l0 85 -29 0 c-20 0 -31 6 -34 18 -4 16 -5 16 -6 0
0 -10 -5 -18 -10 -18 -5 0 -12 8 -14 18 -4 16 -5 16 -6 0 0 -10 -5 -18 -10
-18 -5 0 -12 8 -14 18 -4 16 -5 16 -6 0 0 -10 -5 -18 -10 -18 -5 0 -12 8 -14
18 -4 16 -5 16 -6 0 -1 -14 -10 -18 -46 -18 -33 0 -45 -4 -45 -15 0 -12 -14
-15 -69 -15 -58 0 -70 3 -74 18 -4 16 -5 16 -6 0 0 -10 -5 -18 -10 -18 -5 0
-12 8 -14 18 -4 16 -5 16 -6 0 0 -10 -5 -18 -10 -18 -5 0 -12 8 -14 18 -4 16
-5 16 -6 0 -1 -16 -12 -18 -76 -18 -68 0 -75 -2 -75 -20 0 -27 -18 -25 -23 3
l-4 22 -2 -22 c-1 -21 -6 -23 -66 -23 -51 0 -65 -3 -65 -15 0 -21 -18 -19 -23
3 -4 16 -5 16 -6 0 0 -10 -5 -18 -10 -18 -5 0 -12 8 -14 18 -4 16 -5 16 -6 0
-1 -16 -13 -18 -101 -18 l-100 0 0 35 c0 24 -5 35 -15 35 -21 0 -19 18 3 23
16 4 16 5 0 6 -10 0 -18 8 -18 16 0 8 -7 15 -15 15 -8 0 -15 7 -15 15 0 10
-10 15 -30 15 -20 0 -30 5 -30 15 0 10 -10 15 -30 15 -20 0 -30 5 -30 15 0 8
-6 15 -14 15 -8 0 -17 8 -19 18 -4 16 -5 16 -6 0 -1 -22 -21 -24 -21 -3 0 12
-17 15 -97 14 -54 -1 -90 -3 -80 -6z m868 -330 c1 -17 2 -17 6 0 5 21 23 23
23 2 0 -8 7 -15 15 -15 21 0 19 -20 -2 -21 -17 -1 -17 -2 0 -6 21 -5 23 -23 2
-23 -12 0 -15 -13 -15 -60 0 -50 -3 -60 -17 -61 -17 -1 -17 -2 0 -6 21 -5 23
-23 2 -23 -11 0 -15 -12 -15 -45 0 -36 -4 -45 -17 -46 -17 -1 -17 -2 0 -6 21
-5 23 -23 2 -23 -10 0 -15 -10 -15 -30 0 -31 -19 -43 -21 -12 -1 16 -2 16 -6
0 -5 -22 -23 -24 -23 -3 0 8 -9 15 -20 15 -11 0 -20 7 -20 15 0 8 -7 15 -15
15 -8 0 -15 7 -15 15 0 8 -7 15 -15 15 -8 0 -15 7 -15 15 0 8 -7 15 -15 15
-10 0 -15 10 -15 30 0 20 -5 30 -15 30 -8 0 -15 7 -15 15 0 8 -7 15 -15 15 -8
0 -15 7 -15 15 0 8 -7 15 -15 15 -10 0 -15 10 -15 30 0 20 -5 30 -15 30 -9 0
-15 9 -15 25 0 24 3 25 60 25 47 0 60 3 60 15 0 21 20 19 21 -2 1 -17 2 -17 6
0 4 14 17 17 84 17 64 0 79 3 79 15 0 21 20 19 21 -2z m-281 -1968 c0 -8 7
-15 15 -15 12 0 15 -13 15 -60 0 -47 3 -60 15 -60 12 0 15 -14 15 -65 0 -51 3
-65 15 -65 21 0 19 -20 -2 -21 -17 -1 -17 -2 0 -6 21 -5 23 -23 2 -23 -8 0
-15 -7 -15 -15 0 -21 -20 -19 -21 3 -1 16 -2 16 -6 0 -2 -10 -9 -18 -14 -18
-5 0 -10 8 -10 18 -1 16 -2 16 -6 0 -5 -22 -23 -24 -23 -3 0 10 -10 15 -30 15
-20 0 -30 5 -30 15 0 8 -7 15 -15 15 -8 0 -15 7 -15 15 0 8 -7 15 -15 15 -8 0
-15 7 -15 15 0 8 -7 15 -15 15 -21 0 -19 20 3 21 16 1 16 2 0 6 -23 6 -25 63
-3 63 8 0 15 7 15 15 0 8 7 15 15 15 8 0 15 7 15 15 0 8 7 15 15 15 8 0 15 7
15 15 0 8 7 15 15 15 8 0 15 7 15 15 0 8 7 15 15 15 8 0 15 7 15 15 0 8 5 15
10 15 6 0 10 -7 10 -15z m31 -522 c1 -17 2 -17 6 0 5 21 23 23 23 2 0 -12 14
-15 65 -15 51 0 65 -3 65 -15 0 -8 7 -15 15 -15 10 0 15 -10 15 -30 0 -20 5
-30 15 -30 21 0 19 -20 -2 -21 -17 -1 -17 -2 0 -6 13 -3 17 -15 17 -49 0 -32
4 -44 15 -44 21 0 19 -20 -2 -21 -17 -1 -17 -2 0 -6 14 -4 17 -16 17 -79 0
-59 -3 -74 -15 -74 -8 0 -15 -7 -15 -15 0 -8 -7 -15 -15 -15 -10 0 -15 -10
-15 -30 0 -20 -5 -30 -15 -30 -8 0 -15 -7 -15 -15 0 -8 -7 -15 -15 -15 -8 0
-15 -7 -15 -15 0 -8 -9 -15 -20 -15 -16 0 -20 -7 -20 -30 0 -20 -5 -30 -15
-30 -8 0 -15 -7 -15 -15 0 -8 -7 -15 -15 -15 -8 0 -15 -7 -15 -15 0 -8 -4 -15
-10 -15 -5 0 -10 14 -10 30 0 20 -5 30 -15 30 -21 0 -19 20 3 21 16 1 16 2 0
6 -10 2 -18 9 -18 14 0 5 8 10 18 10 16 1 16 2 0 6 -16 4 -18 20 -18 144 0
117 -2 139 -15 139 -21 0 -19 20 3 21 16 1 16 2 0 6 -10 2 -18 9 -18 14 0 5 8
10 18 10 16 1 16 2 0 6 -10 2 -18 9 -18 14 0 5 8 10 18 10 16 1 16 2 0 6 -15
4 -18 17 -18 89 0 68 3 84 15 84 8 0 15 7 15 15 0 21 20 19 21 -2z m279 -638
c0 -8 7 -15 15 -15 12 0 15 -16 15 -85 0 -69 -3 -85 -15 -85 -8 0 -15 -7 -15
-15 0 -10 -10 -15 -30 -15 -20 0 -30 -5 -30 -15 0 -8 -4 -15 -10 -15 -5 0 -10
7 -10 15 0 8 -7 15 -15 15 -8 0 -15 7 -15 15 0 8 -9 15 -20 15 -17 0 -20 7
-20 40 0 33 3 40 20 40 11 0 20 7 20 15 0 8 7 15 15 15 8 0 15 7 15 15 0 8 8
16 18 16 16 1 16 2 0 6 -22 5 -24 23 -3 23 8 0 15 7 15 15 0 9 9 15 25 15 16
0 25 -6 25 -15z"/>
</g>
</svg>
