<?xml version="1.0" standalone="no"?>
<!DOCTYPE svg PUBLIC "-//W3C//DTD SVG 20010904//EN"
 "http://www.w3.org/TR/2001/REC-SVG-20010904/DTD/svg10.dtd">
<svg version="1.0" xmlns="http://www.w3.org/2000/svg"
 width="2048.000000pt" height="1440.000000pt" viewBox="0 0 2048.000000 1440.000000"
 preserveAspectRatio="xMidYMid meet">
<metadata>
Created by potrace 1.15, written by Peter Selinger 2001-2017
</metadata>
<g transform="translate(0.000000,1440.000000) scale(0.100000,-0.100000)"
fill="#000000" stroke="none">
<path d="M9600 12965 l0 -105 30 0 29 0 3 -72 3 -72 30 -1 c29 0 29 0 30 -60
l0 -60 33 -3 c28 -3 32 -7 32 -33 0 -26 3 -29 30 -29 l30 0 0 -65 0 -65 30 0
c29 0 29 -1 32 -62 3 -63 3 -63 36 -66 28 -3 32 -7 32 -33 0 -26 3 -29 30 -29
27 0 30 -3 30 -30 0 -27 3 -30 30 -30 29 0 29 -1 32 -62 3 -63 3 -63 36 -66
28 -3 32 -7 32 -33 0 -25 4 -29 29 -29 26 0 30 -4 33 -32 2 -28 7 -33 28 -33
20 0 26 -7 30 -30 4 -25 10 -30 38 -33 33 -3 33 -3 32 -55 -2 -76 -2 -76 28
-74 24 2 27 -2 30 -30 3 -29 7 -33 33 -33 25 0 29 -4 29 -29 0 -26 4 -30 33
-33 28 -3 32 -6 30 -30 -1 -16 4 -28 10 -29 7 -1 21 -2 32 -3 17 -1 20 -9 23
-63 3 -62 3 -63 32 -63 26 0 30 -4 30 -29 0 -26 4 -30 32 -33 l33 -3 0 -60 0
-60 33 -3 32 -3 0 -105 0 -104 30 0 30 0 0 -115 0 -114 -62 -3 c-63 -3 -63 -3
-63 -33 0 -27 -3 -30 -30 -30 -27 0 -30 -4 -33 -32 -3 -29 -7 -33 -33 -33 -26
0 -29 -3 -29 -30 l0 -30 -64 0 -65 0 -3 -32 c-2 -27 -7 -33 -28 -33 -24 0 -25
-3 -28 -62 -3 -61 -3 -62 -34 -65 -31 -3 -31 -3 -32 -63 l-1 -60 -32 -3 c-29
-3 -33 -7 -33 -33 0 -26 -3 -29 -30 -29 l-30 0 0 -65 0 -65 -30 0 c-27 0 -30
-3 -30 -30 l0 -30 -65 0 -65 0 0 -30 c0 -27 -3 -30 -29 -30 -26 0 -30 -4 -33
-32 -3 -29 -7 -33 -35 -36 -29 -3 -33 -7 -33 -33 0 -26 -3 -29 -30 -29 -27 0
-30 -3 -30 -30 0 -27 -3 -30 -30 -30 l-30 0 0 -74 0 -75 -32 -3 -33 -3 0 -60
0 -60 -33 -3 -32 -3 0 -60 c0 -59 0 -59 -30 -59 l-30 0 2 -422 3 -423 25 0
c25 0 25 -2 30 -95 l5 -94 30 -1 c29 0 29 0 30 -60 l0 -60 33 -3 c28 -3 32 -7
32 -33 0 -26 3 -29 30 -29 l30 0 0 -75 0 -75 30 0 c29 0 29 -1 32 -62 3 -63 3
-63 36 -66 28 -3 32 -7 32 -33 0 -26 3 -29 30 -29 27 0 30 -3 30 -30 0 -27 3
-30 29 -30 26 0 30 -4 33 -32 3 -29 7 -33 36 -36 28 -3 32 -7 32 -33 0 -26 3
-29 30 -29 27 0 30 -3 30 -30 0 -27 3 -30 29 -30 26 0 30 -4 33 -32 3 -29 7
-33 36 -36 30 -3 33 -6 30 -30 -3 -24 1 -27 29 -30 l33 -3 2 -547 3 -547 28 3
27 3 0 -475 0 -475 33 -3 32 -3 3 -217 2 -217 -32 -3 -33 -3 -3 -187 -2 -188
-30 0 -30 0 0 -64 0 -65 -32 -3 c-31 -3 -31 -3 -32 -63 -1 -60 -1 -60 -31 -60
l-30 0 -5 -95 c-5 -93 -5 -95 -30 -95 l-25 0 -3 -168 -2 -167 170 0 170 0 0
30 c0 27 3 30 30 30 l30 0 0 95 0 95 30 0 29 0 3 157 3 158 33 3 33 3 -2 122
-1 122 31 3 31 3 0 65 0 65 28 -3 c24 -3 27 1 30 29 3 28 7 32 35 35 27 2 32
7 32 28 0 21 6 26 33 28 31 3 32 5 32 48 0 42 1 44 30 44 27 0 30 3 30 29 0
28 3 30 43 33 37 3 42 6 42 28 0 21 6 26 33 28 29 3 32 6 32 38 l0 35 83 -3
82 -3 3 -62 c3 -62 3 -63 32 -63 l30 0 0 -75 0 -75 30 0 29 0 3 -92 3 -93 33
-3 32 -3 0 -440 0 -439 124 0 125 0 3 -30 3 -31 165 0 165 -1 0 29 c1 24 5 28
33 31 l32 3 -2 167 -3 167 -27 -2 c-16 -1 -28 3 -28 10 -1 7 -2 64 -3 127 l-2
115 -32 3 -33 3 0 144 0 144 33 3 32 3 1 90 2 90 31 3 31 3 0 464 0 464 -31 3
-30 3 0 175 0 175 30 3 31 3 0 429 0 429 -31 3 -31 3 -1 155 -2 155 -30 0 -30
0 -3 158 -3 157 -29 0 -30 0 0 95 0 95 -30 0 -30 0 0 95 0 95 -35 0 -35 0 0
75 0 75 -30 0 -30 0 0 60 0 60 -30 0 -30 0 0 64 0 65 -32 3 c-28 2 -34 8 -36
31 -3 23 -8 27 -33 27 l-29 0 0 65 0 65 -30 0 c-27 0 -30 3 -30 29 0 26 -4 30
-32 33 -29 3 -33 6 -33 33 0 27 -3 30 -30 30 -26 1 -30 4 -33 33 -3 28 -7 32
-33 32 -26 0 -29 3 -29 30 l0 30 -65 0 -65 0 0 36 c0 33 -2 35 -27 32 -25 -3
-28 1 -31 29 -3 27 -8 32 -33 35 l-31 3 -1 80 -1 80 32 3 c28 3 32 7 32 33 0
25 4 29 30 29 29 0 29 1 32 63 l3 62 33 3 c29 3 32 6 30 30 -3 24 1 27 30 30
l32 3 0 95 0 94 30 0 30 0 0 999 0 1000 33 3 c28 3 32 6 29 30 -3 24 0 27 30
30 29 3 33 7 36 36 3 30 6 33 30 30 24 -3 27 1 30 29 3 28 7 32 35 35 28 3 32
6 29 30 -3 24 0 27 30 30 l33 3 3 63 c3 61 3 62 32 62 27 0 30 3 30 30 0 27 3
30 29 30 26 0 30 4 33 32 3 29 7 32 33 33 26 0 30 4 33 33 3 28 7 32 33 32 26
0 29 3 29 30 0 27 3 30 30 30 27 0 30 3 30 29 0 26 4 30 33 33 28 3 32 7 32
33 1 26 4 30 33 33 28 3 32 7 32 33 0 26 3 29 30 29 27 0 30 3 30 29 0 26 4
30 33 33 l32 3 1 60 c1 60 1 60 33 63 l32 3 -3 72 -3 72 -62 3 c-62 3 -63 3
-63 32 0 28 -2 30 -40 30 -38 0 -40 -2 -40 -30 l0 -30 -150 0 -150 0 0 30 0
30 -325 0 -325 0 0 -30 0 -30 -197 -2 -198 -3 -3 -33 -3 -32 -272 2 -272 3 -3
63 c-3 61 -3 62 -32 62 -27 0 -29 3 -32 43 -3 39 -5 42 -30 39 -24 -3 -27 0
-30 30 -3 29 -7 33 -36 36 -30 3 -33 6 -30 30 3 26 2 27 -59 30 -62 3 -63 3
-63 32 l0 30 -200 0 -200 0 0 -105z m1850 -345 c0 -27 3 -30 30 -30 l30 0 0
-85 0 -85 -30 0 -30 0 0 -125 0 -125 -30 0 -29 0 -3 -127 -3 -127 -30 -1 -30
0 -1 -90 -2 -90 -28 -5 c-24 -4 -30 -11 -32 -38 l-3 -33 -52 3 c-50 3 -52 4
-52 33 l0 30 -72 3 -73 3 0 59 0 59 -32 3 c-29 3 -33 6 -33 33 0 27 -3 30 -30
30 -26 1 -30 4 -33 33 -3 28 -7 32 -33 32 -25 0 -29 4 -29 29 0 26 -4 30 -32
33 -31 3 -31 3 -32 63 l-1 60 -32 3 c-29 3 -33 7 -33 33 0 25 -4 29 -29 29
-26 0 -30 4 -33 33 -3 28 -6 32 -30 29 l-28 -3 0 121 0 120 155 0 155 0 0 30
0 30 200 0 200 0 0 30 0 30 85 0 85 0 0 -30z m505 -115 l0 -80 -32 -3 c-29 -3
-33 -7 -33 -33 0 -25 -4 -29 -29 -29 -26 0 -30 -4 -33 -32 -3 -29 -6 -33 -30
-31 -23 1 -27 -3 -30 -30 -3 -28 -7 -32 -35 -35 -29 -3 -33 -7 -33 -33 0 -22
-5 -29 -20 -29 -19 0 -20 7 -20 114 l0 115 32 3 c31 3 31 3 32 63 l1 60 33 3
c28 3 32 7 32 33 l0 30 83 -3 82 -3 0 -80z m-1345 -2750 l0 -95 30 0 30 0 0
-155 0 -155 -50 0 c-49 0 -50 1 -50 30 l0 30 -65 0 -65 0 0 30 c0 29 -1 29
-62 32 l-63 3 0 125 0 125 33 3 c28 3 32 7 32 33 0 26 3 29 30 29 27 0 30 3
30 30 l0 30 85 0 85 0 0 -95z m-320 -525 l0 -30 65 0 c58 0 65 -2 65 -19 0
-15 -8 -21 -32 -23 -29 -3 -32 -7 -33 -33 l0 -30 -115 0 -115 0 0 30 c-1 26
-4 30 -33 33 -31 3 -32 4 -32 53 l0 49 115 0 115 0 0 -30z m2 -312 c3 -29 6
-33 33 -33 23 0 30 -4 30 -20 0 -15 -8 -21 -32 -23 -29 -3 -33 -7 -33 -33 0
-29 0 -29 -59 -29 -60 0 -60 0 -63 -31 -3 -31 -4 -32 -53 -32 -49 0 -50 1 -53
32 -3 27 -7 31 -33 31 -30 0 -30 0 -27 52 l3 51 60 1 c54 1 60 3 58 21 -5 41
3 45 86 45 l80 0 3 -32z m253 -273 c0 -49 -1 -50 -32 -53 -29 -3 -33 -7 -33
-33 0 -26 -3 -29 -30 -29 l-30 0 0 -64 0 -65 -32 -3 c-29 -3 -33 -6 -30 -30 3
-24 0 -27 -30 -30 -29 -3 -33 -7 -36 -36 l-3 -33 -82 3 -82 3 0 30 c-1 26 -4
30 -33 33 -31 3 -32 4 -32 52 0 48 1 49 32 52 29 3 32 7 33 33 0 27 3 30 30
30 27 0 30 4 33 33 l3 32 60 0 c59 0 59 0 59 30 l0 30 95 0 95 0 0 28 c0 33 8
44 30 40 11 -3 15 -16 15 -53z m255 -170 l0 -95 30 0 29 0 3 -157 3 -158 29
-5 28 -5 2 -100 1 -100 33 -3 33 -3 -3 -82 -3 -82 -30 0 c-27 0 -30 -3 -30
-30 l-1 -30 -116 -3 -117 -3 -3 33 -3 32 -57 -3 -57 -2 -3 33 c-3 29 -7 33
-35 36 -29 3 -33 7 -33 33 0 26 -3 29 -30 29 -27 0 -30 3 -30 30 0 27 -3 30
-29 30 -26 0 -30 4 -33 33 -3 28 -7 32 -36 35 l-33 3 3 92 3 92 33 3 c28 3 32
7 32 33 0 26 3 29 30 29 27 0 30 3 30 30 0 27 3 30 29 30 26 0 30 4 33 33 3
28 7 32 33 32 30 1 30 1 33 63 3 61 3 62 32 62 25 0 29 4 32 33 2 27 7 32 28
32 21 0 26 6 28 33 3 32 4 32 58 32 l54 0 0 -95z m0 -1095 l0 -30 198 -2 197
-3 3 -33 c3 -30 6 -33 30 -30 l27 3 5 -95 5 -95 28 2 27 2 0 -160 0 -159 35 0
35 0 0 -189 0 -190 -32 -3 c-28 -2 -33 -7 -33 -28 0 -21 -6 -26 -33 -28 -29
-3 -32 -6 -32 -38 0 -31 -2 -34 -30 -34 -27 0 -30 -3 -30 -29 0 -26 -4 -30
-32 -33 l-33 -3 0 -60 c-1 -60 -1 -60 -30 -60 -26 -1 -30 -5 -33 -33 -3 -30
-6 -32 -43 -32 -37 0 -39 -2 -39 -29 0 -26 -4 -30 -32 -33 l-33 -3 -1 -60 c-1
-60 -1 -60 -32 -63 -28 -3 -32 -7 -32 -33 0 -30 0 -30 -51 -27 l-51 3 1 123 2
122 -35 0 -36 0 0 420 0 420 -30 0 -30 0 0 245 0 245 30 0 c27 0 30 3 30 30 0
30 1 30 55 30 54 0 55 0 55 -30z m588 -1288 c3 -28 7 -32 33 -32 29 0 29 0 29
-60 l0 -60 30 0 30 0 0 -180 0 -180 -29 0 c-26 0 -30 -4 -33 -32 -3 -29 -6
-33 -30 -30 -24 3 -27 0 -30 -30 l-3 -33 -62 -3 c-62 -3 -63 -3 -63 -32 0 -29
-1 -29 -62 -32 l-63 -3 0 -60 0 -60 -33 -3 c-28 -3 -32 -7 -32 -33 0 -27 -2
-29 -40 -29 -38 0 -40 -2 -40 -29 0 -26 -4 -30 -32 -33 -29 -3 -33 -7 -33 -33
-1 -29 -2 -30 -53 -33 l-53 -3 3 118 3 118 25 0 c24 0 25 4 28 62 3 62 3 62
35 65 l32 3 1 90 0 90 32 3 32 3 0 65 0 64 30 0 c27 0 30 3 30 29 0 28 3 30
43 33 l42 3 0 60 0 60 33 3 c28 3 32 7 32 33 0 26 3 29 30 29 27 0 30 3 30 29
0 26 4 30 33 33 26 2 32 7 33 28 2 40 3 42 22 38 11 -2 18 -14 20 -36z"/>
</g>
</svg>
